<mxfile host="65bd71144e">
    <diagram name="Page-1" id="VKIfEj3mlDkRB5rRnX1B">
        <mxGraphModel dx="952" dy="1847" grid="1" gridSize="10" guides="1" tooltips="1" connect="1" arrows="1" fold="1" page="1" pageScale="1" pageWidth="850" pageHeight="1100" math="0" shadow="0">
            <root>
                <mxCell id="0"/>
                <mxCell id="1" parent="0"/>
                <mxCell id="zo8fXFX7OQxVQUgS2-ui-1" value="" style="rounded=0;whiteSpace=wrap;html=1;fillColor=#f5f5f5;fontColor=#333333;strokeColor=default;" parent="1" vertex="1">
                    <mxGeometry x="110" y="-11.25" width="750" height="1690" as="geometry"/>
                </mxCell>
                <mxCell id="Dv45MwDtuRTJTmWjP7hb-97" value="" style="rounded=0;whiteSpace=wrap;html=1;fillColor=#f5f5f5;fontColor=#333333;strokeColor=#666666;" parent="1" vertex="1">
                    <mxGeometry x="250" y="10" width="530" height="540" as="geometry"/>
                </mxCell>
                <mxCell id="Dv45MwDtuRTJTmWjP7hb-225" value="" style="rounded=0;whiteSpace=wrap;html=1;strokeColor=#d79b00;fillColor=#ffe6cc;" parent="1" vertex="1">
                    <mxGeometry x="470" y="100" width="160" height="430" as="geometry"/>
                </mxCell>
                <mxCell id="15" value="" style="rounded=0;whiteSpace=wrap;html=1;fillColor=#DEDEDE;fontColor=#333333;strokeColor=none;" vertex="1" parent="1">
                    <mxGeometry x="270" y="130" width="40" height="70" as="geometry"/>
                </mxCell>
                <mxCell id="Dv45MwDtuRTJTmWjP7hb-90" style="edgeStyle=none;rounded=0;orthogonalLoop=1;jettySize=auto;html=1;exitX=1;exitY=0.3333333333333333;exitDx=0;exitDy=0;exitPerimeter=0;entryX=0;entryY=0.5;entryDx=0;entryDy=0;strokeColor=#E07A5F;fontColor=#393C56;fillColor=#F2CC8F;jumpStyle=gap;" parent="1" source="Dv45MwDtuRTJTmWjP7hb-3" target="Dv45MwDtuRTJTmWjP7hb-74" edge="1">
                    <mxGeometry relative="1" as="geometry"/>
                </mxCell>
                <mxCell id="Dv45MwDtuRTJTmWjP7hb-91" style="edgeStyle=none;rounded=0;orthogonalLoop=1;jettySize=auto;html=1;exitX=1;exitY=0.3333333333333333;exitDx=0;exitDy=0;exitPerimeter=0;entryX=0;entryY=0.5;entryDx=0;entryDy=0;strokeColor=#E07A5F;fontColor=#393C56;fillColor=#F2CC8F;" parent="1" source="Dv45MwDtuRTJTmWjP7hb-3" target="Dv45MwDtuRTJTmWjP7hb-62" edge="1">
                    <mxGeometry relative="1" as="geometry"/>
                </mxCell>
                <mxCell id="Dv45MwDtuRTJTmWjP7hb-3" value="Primary User" style="shape=umlActor;verticalLabelPosition=bottom;verticalAlign=top;html=1;outlineConnect=0;labelBackgroundColor=none;fillColor=#F2CC8F;strokeColor=#E07A5F;fontColor=#393C56;" parent="1" vertex="1">
                    <mxGeometry x="150" y="297.19" width="30" height="60" as="geometry"/>
                </mxCell>
                <mxCell id="Dv45MwDtuRTJTmWjP7hb-89" style="edgeStyle=none;rounded=0;orthogonalLoop=1;jettySize=auto;html=1;exitX=0.5;exitY=0;exitDx=0;exitDy=0;entryX=0.5;entryY=1;entryDx=0;entryDy=0;strokeColor=#E07A5F;fontColor=#393C56;fillColor=#F2CC8F;" parent="1" source="Dv45MwDtuRTJTmWjP7hb-62" target="Dv45MwDtuRTJTmWjP7hb-74" edge="1">
                    <mxGeometry relative="1" as="geometry"/>
                </mxCell>
                <mxCell id="Dv45MwDtuRTJTmWjP7hb-221" style="edgeStyle=elbowEdgeStyle;rounded=0;orthogonalLoop=1;jettySize=auto;html=1;exitX=0;exitY=0;exitDx=0;exitDy=0;entryX=0;entryY=0.5;entryDx=0;entryDy=0;strokeColor=#E07A5F;fontColor=#393C56;startArrow=none;startFill=0;endArrow=classic;endFill=1;fillColor=#F2CC8F;" parent="1" source="Dv45MwDtuRTJTmWjP7hb-62" target="Dv45MwDtuRTJTmWjP7hb-73" edge="1">
                    <mxGeometry relative="1" as="geometry">
                        <Array as="points">
                            <mxPoint x="290" y="360"/>
                            <mxPoint x="280" y="210"/>
                            <mxPoint x="290" y="320"/>
                        </Array>
                    </mxGeometry>
                </mxCell>
                <mxCell id="14" value="Extends" style="edgeLabel;html=1;align=center;verticalAlign=middle;resizable=0;points=[];fontColor=#393C56;labelBackgroundColor=none;rotation=-90;" vertex="1" connectable="0" parent="Dv45MwDtuRTJTmWjP7hb-221">
                    <mxGeometry x="0.577" y="-3" relative="1" as="geometry">
                        <mxPoint x="-13" y="-10" as="offset"/>
                    </mxGeometry>
                </mxCell>
                <mxCell id="Dv45MwDtuRTJTmWjP7hb-229" style="edgeStyle=none;rounded=0;orthogonalLoop=1;jettySize=auto;html=1;exitX=1;exitY=0.5;exitDx=0;exitDy=0;entryX=0;entryY=0.75;entryDx=0;entryDy=0;strokeColor=#E07A5F;fontColor=#393C56;startArrow=none;startFill=0;endArrow=classic;endFill=1;fillColor=#F2CC8F;" parent="1" source="Dv45MwDtuRTJTmWjP7hb-62" target="Dv45MwDtuRTJTmWjP7hb-225" edge="1">
                    <mxGeometry relative="1" as="geometry"/>
                </mxCell>
                <mxCell id="Dv45MwDtuRTJTmWjP7hb-62" value="Create Task" style="ellipse;whiteSpace=wrap;html=1;strokeColor=#E07A5F;fontColor=#393C56;fillColor=#F2CC8F;" parent="1" vertex="1">
                    <mxGeometry x="310" y="380" width="80" height="52.5" as="geometry"/>
                </mxCell>
                <mxCell id="Dv45MwDtuRTJTmWjP7hb-63" value="Set due date" style="ellipse;whiteSpace=wrap;html=1;strokeColor=#E07A5F;fontColor=#393C56;fillColor=#F2CC8F;dashed=1;" parent="1" vertex="1">
                    <mxGeometry x="510" y="472.50000000000006" width="80" height="52.5" as="geometry"/>
                </mxCell>
                <mxCell id="Dv45MwDtuRTJTmWjP7hb-66" value="Set Recurrence" style="ellipse;whiteSpace=wrap;html=1;strokeColor=#E07A5F;fontColor=#393C56;fillColor=#F2CC8F;dashed=1;" parent="1" vertex="1">
                    <mxGeometry x="510" y="411.25000000000006" width="80" height="52.5" as="geometry"/>
                </mxCell>
                <mxCell id="Dv45MwDtuRTJTmWjP7hb-68" value="Set Priority" style="ellipse;whiteSpace=wrap;html=1;strokeColor=#E07A5F;fontColor=#393C56;fillColor=#F2CC8F;dashed=1;" parent="1" vertex="1">
                    <mxGeometry x="510" y="351.25" width="80" height="52.5" as="geometry"/>
                </mxCell>
                <mxCell id="Dv45MwDtuRTJTmWjP7hb-69" value="Assign Color" style="ellipse;whiteSpace=wrap;html=1;strokeColor=#E07A5F;fontColor=#393C56;fillColor=#F2CC8F;dashed=1;" parent="1" vertex="1">
                    <mxGeometry x="510" y="291.25" width="80" height="52.5" as="geometry"/>
                </mxCell>
                <mxCell id="Dv45MwDtuRTJTmWjP7hb-70" value="Set Reminder" style="ellipse;whiteSpace=wrap;html=1;strokeColor=#E07A5F;fontColor=#393C56;fillColor=#F2CC8F;dashed=1;" parent="1" vertex="1">
                    <mxGeometry x="510" y="231.25" width="80" height="52.5" as="geometry"/>
                </mxCell>
                <mxCell id="Dv45MwDtuRTJTmWjP7hb-71" value="Set Due Date" style="ellipse;whiteSpace=wrap;html=1;strokeColor=#E07A5F;fontColor=#393C56;fillColor=#F2CC8F;dashed=1;" parent="1" vertex="1">
                    <mxGeometry x="510" y="171.25" width="80" height="52.5" as="geometry"/>
                </mxCell>
                <mxCell id="Dv45MwDtuRTJTmWjP7hb-72" value="Add Task To Task List" style="ellipse;whiteSpace=wrap;html=1;strokeColor=#E07A5F;fontColor=#393C56;fillColor=#F2CC8F;" parent="1" vertex="1">
                    <mxGeometry x="510" y="110.63" width="80" height="52.5" as="geometry"/>
                </mxCell>
                <mxCell id="Dv45MwDtuRTJTmWjP7hb-73" value="Mark as Complete" style="ellipse;whiteSpace=wrap;html=1;strokeColor=#E07A5F;fontColor=#393C56;fillColor=#F2CC8F;fontStyle=4;dashed=1;" parent="1" vertex="1">
                    <mxGeometry x="310" y="110.63" width="80" height="52.5" as="geometry"/>
                </mxCell>
                <mxCell id="Dv45MwDtuRTJTmWjP7hb-222" style="edgeStyle=elbowEdgeStyle;rounded=0;orthogonalLoop=1;jettySize=auto;html=1;exitX=0;exitY=0;exitDx=0;exitDy=0;strokeColor=#E07A5F;fontColor=#393C56;startArrow=none;startFill=0;endArrow=classic;endFill=1;fillColor=#F2CC8F;entryX=0;entryY=1;entryDx=0;entryDy=0;" parent="1" source="Dv45MwDtuRTJTmWjP7hb-74" target="Dv45MwDtuRTJTmWjP7hb-73" edge="1">
                    <mxGeometry relative="1" as="geometry">
                        <mxPoint x="309.9999999999999" y="210" as="targetPoint"/>
                        <Array as="points">
                            <mxPoint x="300" y="180"/>
                        </Array>
                    </mxGeometry>
                </mxCell>
                <mxCell id="Dv45MwDtuRTJTmWjP7hb-227" style="rounded=0;orthogonalLoop=1;jettySize=auto;html=1;exitX=1;exitY=0.5;exitDx=0;exitDy=0;entryX=0;entryY=0.25;entryDx=0;entryDy=0;strokeColor=#E07A5F;fontColor=#393C56;startArrow=none;startFill=0;endArrow=classic;endFill=1;fillColor=#F2CC8F;" parent="1" source="Dv45MwDtuRTJTmWjP7hb-74" target="Dv45MwDtuRTJTmWjP7hb-225" edge="1">
                    <mxGeometry relative="1" as="geometry"/>
                </mxCell>
                <mxCell id="Dv45MwDtuRTJTmWjP7hb-74" value="&lt;font color=&quot;#393c56&quot;&gt;Modify Task&lt;/font&gt;" style="ellipse;whiteSpace=wrap;html=1;strokeColor=#E07A5F;fillColor=#F2CC8F;fontColor=#393C56;" parent="1" vertex="1">
                    <mxGeometry x="310" y="190" width="80" height="52.5" as="geometry"/>
                </mxCell>
                <mxCell id="Dv45MwDtuRTJTmWjP7hb-98" value="Task Management" style="text;html=1;strokeColor=none;fillColor=none;align=center;verticalAlign=middle;whiteSpace=wrap;rounded=0;fontColor=#393C56;" parent="1" vertex="1">
                    <mxGeometry x="480" y="30" width="60" height="30" as="geometry"/>
                </mxCell>
                <mxCell id="Dv45MwDtuRTJTmWjP7hb-105" value="" style="rounded=0;whiteSpace=wrap;html=1;fillColor=#f5f5f5;fontColor=#333333;strokeColor=#666666;" parent="1" vertex="1">
                    <mxGeometry x="250" y="560" width="530" height="540" as="geometry"/>
                </mxCell>
                <mxCell id="Dv45MwDtuRTJTmWjP7hb-106" value="Task Viewing" style="text;html=1;strokeColor=none;fillColor=none;align=center;verticalAlign=middle;whiteSpace=wrap;rounded=0;fontColor=#393C56;" parent="1" vertex="1">
                    <mxGeometry x="480" y="600" width="60" height="30" as="geometry"/>
                </mxCell>
                <mxCell id="2" value="" style="rounded=0;whiteSpace=wrap;html=1;fillColor=#DEDEDE;fontColor=#333333;strokeColor=none;" vertex="1" parent="1">
                    <mxGeometry x="420" y="800" width="70" height="61.25" as="geometry"/>
                </mxCell>
                <mxCell id="Dv45MwDtuRTJTmWjP7hb-126" style="edgeStyle=none;rounded=1;orthogonalLoop=1;jettySize=auto;html=1;exitX=1;exitY=0.3333333333333333;exitDx=0;exitDy=0;exitPerimeter=0;entryX=0;entryY=0.5;entryDx=0;entryDy=0;strokeColor=#E07A5F;fontColor=#393C56;startArrow=none;startFill=0;fillColor=#F2CC8F;jumpStyle=gap;" parent="1" source="Dv45MwDtuRTJTmWjP7hb-107" target="Dv45MwDtuRTJTmWjP7hb-109" edge="1">
                    <mxGeometry relative="1" as="geometry"/>
                </mxCell>
                <mxCell id="Dv45MwDtuRTJTmWjP7hb-127" style="edgeStyle=none;rounded=1;orthogonalLoop=1;jettySize=auto;html=1;exitX=1;exitY=0.3333333333333333;exitDx=0;exitDy=0;exitPerimeter=0;entryX=0;entryY=0.5;entryDx=0;entryDy=0;strokeColor=#E07A5F;fontColor=#393C56;startArrow=none;startFill=0;fillColor=#F2CC8F;" parent="1" source="Dv45MwDtuRTJTmWjP7hb-107" target="Dv45MwDtuRTJTmWjP7hb-108" edge="1">
                    <mxGeometry relative="1" as="geometry"/>
                </mxCell>
                <mxCell id="Dv45MwDtuRTJTmWjP7hb-107" value="Primary User" style="shape=umlActor;verticalLabelPosition=bottom;verticalAlign=top;html=1;outlineConnect=0;labelBackgroundColor=none;fillColor=#F2CC8F;strokeColor=#E07A5F;fontColor=#393C56;" parent="1" vertex="1">
                    <mxGeometry x="170" y="803.75" width="30" height="60" as="geometry"/>
                </mxCell>
                <mxCell id="a6VTtxVTpwLwu77wF2ku-10" value="" style="rounded=0;whiteSpace=wrap;html=1;fillColor=#DEDEDE;fontColor=#333333;strokeColor=none;" parent="1" vertex="1">
                    <mxGeometry x="370" y="710" width="70" height="240" as="geometry"/>
                </mxCell>
                <mxCell id="Dv45MwDtuRTJTmWjP7hb-121" style="edgeStyle=none;rounded=1;orthogonalLoop=1;jettySize=auto;html=1;exitX=1;exitY=0.5;exitDx=0;exitDy=0;entryX=0;entryY=0.5;entryDx=0;entryDy=0;strokeColor=#9673a6;fontColor=#393C56;startArrow=none;startFill=0;fillColor=#e1d5e7;" parent="1" source="Dv45MwDtuRTJTmWjP7hb-108" target="Dv45MwDtuRTJTmWjP7hb-114" edge="1">
                    <mxGeometry relative="1" as="geometry"/>
                </mxCell>
                <mxCell id="Dv45MwDtuRTJTmWjP7hb-122" style="edgeStyle=none;rounded=1;orthogonalLoop=1;jettySize=auto;html=1;exitX=1;exitY=0.5;exitDx=0;exitDy=0;strokeColor=#9673a6;fontColor=#393C56;startArrow=none;startFill=0;fillColor=#e1d5e7;entryX=0;entryY=0.5;entryDx=0;entryDy=0;" parent="1" source="Dv45MwDtuRTJTmWjP7hb-108" edge="1" target="Dv45MwDtuRTJTmWjP7hb-113">
                    <mxGeometry relative="1" as="geometry">
                        <mxPoint x="440" y="769.9999999999998" as="targetPoint"/>
                    </mxGeometry>
                </mxCell>
                <mxCell id="Dv45MwDtuRTJTmWjP7hb-123" style="edgeStyle=none;rounded=1;orthogonalLoop=1;jettySize=auto;html=1;exitX=1;exitY=0.5;exitDx=0;exitDy=0;entryX=0;entryY=0.5;entryDx=0;entryDy=0;strokeColor=#9673a6;fontColor=#393C56;startArrow=none;startFill=0;fillColor=#e1d5e7;" parent="1" source="Dv45MwDtuRTJTmWjP7hb-108" target="Dv45MwDtuRTJTmWjP7hb-111" edge="1">
                    <mxGeometry relative="1" as="geometry"/>
                </mxCell>
                <mxCell id="Dv45MwDtuRTJTmWjP7hb-124" style="edgeStyle=none;rounded=1;orthogonalLoop=1;jettySize=auto;html=1;exitX=1;exitY=0.5;exitDx=0;exitDy=0;entryX=0;entryY=0.5;entryDx=0;entryDy=0;strokeColor=#9673a6;fontColor=#393C56;startArrow=none;startFill=0;fillColor=#e1d5e7;" parent="1" source="Dv45MwDtuRTJTmWjP7hb-108" target="Dv45MwDtuRTJTmWjP7hb-110" edge="1">
                    <mxGeometry relative="1" as="geometry"/>
                </mxCell>
                <mxCell id="Dv45MwDtuRTJTmWjP7hb-125" style="edgeStyle=none;rounded=1;orthogonalLoop=1;jettySize=auto;html=1;exitX=1;exitY=0.5;exitDx=0;exitDy=0;entryX=0;entryY=0.5;entryDx=0;entryDy=0;strokeColor=#9673a6;fontColor=#393C56;startArrow=none;startFill=0;fillColor=#e1d5e7;" parent="1" source="Dv45MwDtuRTJTmWjP7hb-108" target="Dv45MwDtuRTJTmWjP7hb-112" edge="1">
                    <mxGeometry relative="1" as="geometry"/>
                </mxCell>
                <mxCell id="Dv45MwDtuRTJTmWjP7hb-108" value="&lt;font color=&quot;#393c56&quot;&gt;Calendar View&lt;/font&gt;" style="ellipse;whiteSpace=wrap;html=1;strokeColor=#9673a6;fillColor=#e1d5e7;" parent="1" vertex="1">
                    <mxGeometry x="290" y="866.25" width="80" height="52.5" as="geometry"/>
                </mxCell>
                <mxCell id="Dv45MwDtuRTJTmWjP7hb-115" style="edgeStyle=none;rounded=0;orthogonalLoop=1;jettySize=auto;html=1;exitX=1;exitY=0.5;exitDx=0;exitDy=0;entryX=0;entryY=0.5;entryDx=0;entryDy=0;strokeColor=#E07A5F;fontColor=#393C56;fillColor=#F2CC8F;" parent="1" source="Dv45MwDtuRTJTmWjP7hb-109" target="Dv45MwDtuRTJTmWjP7hb-114" edge="1">
                    <mxGeometry relative="1" as="geometry"/>
                </mxCell>
                <mxCell id="Dv45MwDtuRTJTmWjP7hb-116" style="edgeStyle=none;rounded=0;orthogonalLoop=1;jettySize=auto;html=1;exitX=1;exitY=0.5;exitDx=0;exitDy=0;entryX=0;entryY=0.5;entryDx=0;entryDy=0;strokeColor=#E07A5F;fontColor=#393C56;fillColor=#F2CC8F;jumpStyle=gap;" parent="1" source="Dv45MwDtuRTJTmWjP7hb-109" target="Dv45MwDtuRTJTmWjP7hb-113" edge="1">
                    <mxGeometry relative="1" as="geometry"/>
                </mxCell>
                <mxCell id="Dv45MwDtuRTJTmWjP7hb-117" style="edgeStyle=none;rounded=0;orthogonalLoop=1;jettySize=auto;html=1;exitX=1;exitY=0.5;exitDx=0;exitDy=0;entryX=0;entryY=0.5;entryDx=0;entryDy=0;strokeColor=#E07A5F;fontColor=#393C56;fillColor=#F2CC8F;jumpStyle=gap;" parent="1" source="Dv45MwDtuRTJTmWjP7hb-109" target="Dv45MwDtuRTJTmWjP7hb-111" edge="1">
                    <mxGeometry relative="1" as="geometry"/>
                </mxCell>
                <mxCell id="Dv45MwDtuRTJTmWjP7hb-118" style="edgeStyle=none;rounded=0;orthogonalLoop=1;jettySize=auto;html=1;exitX=1;exitY=0.5;exitDx=0;exitDy=0;entryX=0;entryY=0.5;entryDx=0;entryDy=0;strokeColor=#E07A5F;fontColor=#393C56;fillColor=#F2CC8F;jumpStyle=gap;" parent="1" source="Dv45MwDtuRTJTmWjP7hb-109" target="Dv45MwDtuRTJTmWjP7hb-110" edge="1">
                    <mxGeometry relative="1" as="geometry"/>
                </mxCell>
                <mxCell id="Dv45MwDtuRTJTmWjP7hb-119" style="edgeStyle=none;rounded=0;orthogonalLoop=1;jettySize=auto;html=1;exitX=1;exitY=0.5;exitDx=0;exitDy=0;entryX=0;entryY=0.5;entryDx=0;entryDy=0;strokeColor=#E07A5F;fontColor=#393C56;fillColor=#F2CC8F;jumpStyle=gap;" parent="1" source="Dv45MwDtuRTJTmWjP7hb-109" target="Dv45MwDtuRTJTmWjP7hb-112" edge="1">
                    <mxGeometry relative="1" as="geometry"/>
                </mxCell>
                <mxCell id="Dv45MwDtuRTJTmWjP7hb-120" style="edgeStyle=none;rounded=0;orthogonalLoop=1;jettySize=auto;html=1;exitX=0.5;exitY=1;exitDx=0;exitDy=0;entryX=0.5;entryY=0;entryDx=0;entryDy=0;strokeColor=#E07A5F;fontColor=#393C56;fillColor=#F2CC8F;startArrow=classic;startFill=1;" parent="1" source="Dv45MwDtuRTJTmWjP7hb-109" target="Dv45MwDtuRTJTmWjP7hb-108" edge="1">
                    <mxGeometry relative="1" as="geometry"/>
                </mxCell>
                <mxCell id="Dv45MwDtuRTJTmWjP7hb-109" value="Weekly View" style="ellipse;whiteSpace=wrap;html=1;strokeColor=#E07A5F;fontColor=#393C56;fillColor=#F2CC8F;" parent="1" vertex="1">
                    <mxGeometry x="290" y="745" width="80" height="52.5" as="geometry"/>
                </mxCell>
                <mxCell id="Dv45MwDtuRTJTmWjP7hb-128" style="edgeStyle=orthogonalEdgeStyle;rounded=0;orthogonalLoop=1;jettySize=auto;html=1;exitX=1;exitY=0.5;exitDx=0;exitDy=0;entryX=0.5;entryY=1;entryDx=0;entryDy=0;strokeColor=#E07A5F;fontColor=#393C56;startArrow=none;startFill=0;fillColor=#F2CC8F;" parent="1" source="Dv45MwDtuRTJTmWjP7hb-110" target="Dv45MwDtuRTJTmWjP7hb-111" edge="1">
                    <mxGeometry relative="1" as="geometry"/>
                </mxCell>
                <mxCell id="Dv45MwDtuRTJTmWjP7hb-110" value="&lt;font color=&quot;#393c56&quot;&gt;Task List Manager&lt;/font&gt;" style="ellipse;whiteSpace=wrap;html=1;strokeColor=#b85450;fillColor=#f8cecc;" parent="1" vertex="1">
                    <mxGeometry x="440" y="865" width="80" height="52.5" as="geometry"/>
                </mxCell>
                <mxCell id="Dv45MwDtuRTJTmWjP7hb-238" value="" style="edgeStyle=none;rounded=0;orthogonalLoop=1;jettySize=auto;html=1;exitX=1;exitY=0.5;exitDx=0;exitDy=0;strokeColor=#E07A5F;fontColor=#393C56;startArrow=none;startFill=0;endArrow=classic;endFill=1;fillColor=#F2CC8F;entryX=0;entryY=0.5;entryDx=0;entryDy=0;" parent="1" source="Dv45MwDtuRTJTmWjP7hb-111" target="Dv45MwDtuRTJTmWjP7hb-235" edge="1">
                    <mxGeometry relative="1" as="geometry">
                        <mxPoint x="630" y="829.1739130434785" as="targetPoint"/>
                    </mxGeometry>
                </mxCell>
                <mxCell id="Dv45MwDtuRTJTmWjP7hb-111" value="Filter By Task" style="ellipse;whiteSpace=wrap;html=1;strokeColor=#E07A5F;fontColor=#393C56;fillColor=#F2CC8F;dashed=1;" parent="1" vertex="1">
                    <mxGeometry x="490" y="802.5" width="80" height="52.5" as="geometry"/>
                </mxCell>
                <mxCell id="Dv45MwDtuRTJTmWjP7hb-239" value="" style="edgeStyle=none;rounded=0;orthogonalLoop=1;jettySize=auto;html=1;exitX=1;exitY=0.5;exitDx=0;exitDy=0;entryX=0;entryY=0.5;entryDx=0;entryDy=0;strokeColor=#E07A5F;fontColor=#393C56;startArrow=none;startFill=0;endArrow=classic;endFill=1;fillColor=#F2CC8F;" parent="1" source="Dv45MwDtuRTJTmWjP7hb-112" target="Dv45MwDtuRTJTmWjP7hb-235" edge="1">
                    <mxGeometry relative="1" as="geometry"/>
                </mxCell>
                <mxCell id="Dv45MwDtuRTJTmWjP7hb-112" value="Filter by priority" style="ellipse;whiteSpace=wrap;html=1;strokeColor=#E07A5F;fontColor=#393C56;fillColor=#F2CC8F;dashed=1;" parent="1" vertex="1">
                    <mxGeometry x="440" y="932.5" width="80" height="52.5" as="geometry"/>
                </mxCell>
                <mxCell id="Dv45MwDtuRTJTmWjP7hb-237" style="edgeStyle=none;rounded=0;orthogonalLoop=1;jettySize=auto;html=1;exitX=1;exitY=0.5;exitDx=0;exitDy=0;entryX=0;entryY=0.5;entryDx=0;entryDy=0;strokeColor=#E07A5F;fontColor=#393C56;startArrow=none;startFill=0;endArrow=classic;endFill=1;fillColor=#F2CC8F;" parent="1" source="Dv45MwDtuRTJTmWjP7hb-113" target="Dv45MwDtuRTJTmWjP7hb-235" edge="1">
                    <mxGeometry relative="1" as="geometry"/>
                </mxCell>
                <mxCell id="Dv45MwDtuRTJTmWjP7hb-113" value="&lt;font color=&quot;#393c56&quot;&gt;Create Task&lt;/font&gt;" style="ellipse;whiteSpace=wrap;html=1;strokeColor=#E07A5F;fillColor=#F2CC8F;fontColor=#393C56;" parent="1" vertex="1">
                    <mxGeometry x="460" y="745" width="80" height="52.5" as="geometry"/>
                </mxCell>
                <mxCell id="Dv45MwDtuRTJTmWjP7hb-236" style="edgeStyle=none;rounded=0;orthogonalLoop=1;jettySize=auto;html=1;exitX=1;exitY=0.5;exitDx=0;exitDy=0;entryX=0;entryY=0.5;entryDx=0;entryDy=0;strokeColor=#E07A5F;fontColor=#393C56;startArrow=none;startFill=0;endArrow=classic;endFill=1;fillColor=#F2CC8F;" parent="1" source="Dv45MwDtuRTJTmWjP7hb-114" target="Dv45MwDtuRTJTmWjP7hb-235" edge="1">
                    <mxGeometry relative="1" as="geometry"/>
                </mxCell>
                <mxCell id="Dv45MwDtuRTJTmWjP7hb-249" value="&lt;span style=&quot;&quot;&gt;Precedes&lt;/span&gt;" style="edgeLabel;html=1;align=center;verticalAlign=middle;resizable=0;points=[];fontColor=#393C56;labelBackgroundColor=none;rotation=40;" parent="Dv45MwDtuRTJTmWjP7hb-236" vertex="1" connectable="0">
                    <mxGeometry x="-0.3348" y="4" relative="1" as="geometry">
                        <mxPoint x="-22" y="-26" as="offset"/>
                    </mxGeometry>
                </mxCell>
                <mxCell id="Dv45MwDtuRTJTmWjP7hb-114" value="&lt;font color=&quot;#393c56&quot;&gt;Modify Task&lt;/font&gt;" style="ellipse;whiteSpace=wrap;html=1;strokeColor=#E07A5F;fillColor=#F2CC8F;fontColor=#393C56;" parent="1" vertex="1">
                    <mxGeometry x="440" y="682.5" width="80" height="52.5" as="geometry"/>
                </mxCell>
                <mxCell id="Dv45MwDtuRTJTmWjP7hb-129" value="" style="rounded=0;whiteSpace=wrap;html=1;fillColor=#f5f5f5;fontColor=#333333;strokeColor=#666666;" parent="1" vertex="1">
                    <mxGeometry x="250" y="1130" width="530" height="540" as="geometry"/>
                </mxCell>
                <mxCell id="Dv45MwDtuRTJTmWjP7hb-130" value="Task List Management" style="text;html=1;strokeColor=none;fillColor=none;align=center;verticalAlign=middle;whiteSpace=wrap;rounded=0;fontColor=#393C56;" parent="1" vertex="1">
                    <mxGeometry x="480" y="1170" width="60" height="30" as="geometry"/>
                </mxCell>
                <mxCell id="Dv45MwDtuRTJTmWjP7hb-171" style="edgeStyle=none;rounded=0;orthogonalLoop=1;jettySize=auto;html=1;exitX=1;exitY=0.3333333333333333;exitDx=0;exitDy=0;exitPerimeter=0;entryX=0;entryY=0;entryDx=0;entryDy=0;strokeColor=#E07A5F;fontColor=#393C56;startArrow=none;startFill=0;fillColor=#F2CC8F;" parent="1" source="Dv45MwDtuRTJTmWjP7hb-133" target="Dv45MwDtuRTJTmWjP7hb-157" edge="1">
                    <mxGeometry relative="1" as="geometry"/>
                </mxCell>
                <mxCell id="Dv45MwDtuRTJTmWjP7hb-179" style="edgeStyle=none;rounded=0;orthogonalLoop=1;jettySize=auto;html=1;exitX=1;exitY=0.3333333333333333;exitDx=0;exitDy=0;exitPerimeter=0;entryX=0;entryY=0.5;entryDx=0;entryDy=0;strokeColor=#E07A5F;fontColor=#393C56;startArrow=none;startFill=0;fillColor=#F2CC8F;" parent="1" source="Dv45MwDtuRTJTmWjP7hb-133" target="Dv45MwDtuRTJTmWjP7hb-154" edge="1">
                    <mxGeometry relative="1" as="geometry"/>
                </mxCell>
                <mxCell id="Dv45MwDtuRTJTmWjP7hb-180" style="edgeStyle=none;rounded=0;orthogonalLoop=1;jettySize=auto;html=1;exitX=1;exitY=0.3333333333333333;exitDx=0;exitDy=0;exitPerimeter=0;entryX=0;entryY=0.5;entryDx=0;entryDy=0;strokeColor=#E07A5F;fontColor=#393C56;startArrow=none;startFill=0;fillColor=#F2CC8F;" parent="1" source="Dv45MwDtuRTJTmWjP7hb-133" target="Dv45MwDtuRTJTmWjP7hb-156" edge="1">
                    <mxGeometry relative="1" as="geometry"/>
                </mxCell>
                <mxCell id="Dv45MwDtuRTJTmWjP7hb-181" style="edgeStyle=none;rounded=0;orthogonalLoop=1;jettySize=auto;html=1;exitX=1;exitY=0.3333333333333333;exitDx=0;exitDy=0;exitPerimeter=0;entryX=0;entryY=0;entryDx=0;entryDy=0;strokeColor=#E07A5F;fontColor=#393C56;startArrow=none;startFill=0;fillColor=#F2CC8F;" parent="1" source="Dv45MwDtuRTJTmWjP7hb-133" target="Dv45MwDtuRTJTmWjP7hb-158" edge="1">
                    <mxGeometry relative="1" as="geometry"/>
                </mxCell>
                <mxCell id="Dv45MwDtuRTJTmWjP7hb-133" value="Primary User" style="shape=umlActor;verticalLabelPosition=bottom;verticalAlign=top;html=1;outlineConnect=0;labelBackgroundColor=none;fillColor=#F2CC8F;strokeColor=#E07A5F;fontColor=#393C56;" parent="1" vertex="1">
                    <mxGeometry x="155" y="1375" width="30" height="60" as="geometry"/>
                </mxCell>
                <mxCell id="Dv45MwDtuRTJTmWjP7hb-172" style="edgeStyle=none;rounded=0;orthogonalLoop=1;jettySize=auto;html=1;exitX=1;exitY=0.5;exitDx=0;exitDy=0;entryX=0;entryY=0;entryDx=0;entryDy=0;strokeColor=#E07A5F;fontColor=#393C56;startArrow=none;startFill=0;fillColor=#F2CC8F;" parent="1" source="Dv45MwDtuRTJTmWjP7hb-154" target="Dv45MwDtuRTJTmWjP7hb-161" edge="1">
                    <mxGeometry relative="1" as="geometry"/>
                </mxCell>
                <mxCell id="Dv45MwDtuRTJTmWjP7hb-154" value="Create Task List" style="ellipse;whiteSpace=wrap;html=1;strokeColor=#E07A5F;fontColor=#393C56;fillColor=#F2CC8F;dashed=1;" parent="1" vertex="1">
                    <mxGeometry x="280" y="1300" width="80" height="52.5" as="geometry"/>
                </mxCell>
                <mxCell id="Dv45MwDtuRTJTmWjP7hb-173" style="edgeStyle=none;rounded=0;orthogonalLoop=1;jettySize=auto;html=1;exitX=1;exitY=0.5;exitDx=0;exitDy=0;entryX=0;entryY=1;entryDx=0;entryDy=0;strokeColor=#E07A5F;fontColor=#393C56;startArrow=none;startFill=0;fillColor=#F2CC8F;" parent="1" source="Dv45MwDtuRTJTmWjP7hb-155" target="Dv45MwDtuRTJTmWjP7hb-161" edge="1">
                    <mxGeometry relative="1" as="geometry"/>
                </mxCell>
                <mxCell id="Dv45MwDtuRTJTmWjP7hb-155" value="Modify Task List" style="ellipse;whiteSpace=wrap;html=1;strokeColor=#E07A5F;fontColor=#393C56;fillColor=#F2CC8F;shadow=0;dashed=1;" parent="1" vertex="1">
                    <mxGeometry x="340" y="1370" width="80" height="52.5" as="geometry"/>
                </mxCell>
                <mxCell id="Dv45MwDtuRTJTmWjP7hb-156" value="Delete Task List" style="ellipse;whiteSpace=wrap;html=1;strokeColor=#E07A5F;fontColor=#393C56;fillColor=#F2CC8F;dashed=1;" parent="1" vertex="1">
                    <mxGeometry x="330" y="1220" width="80" height="52.5" as="geometry"/>
                </mxCell>
                <mxCell id="Dv45MwDtuRTJTmWjP7hb-185" style="edgeStyle=none;rounded=0;orthogonalLoop=1;jettySize=auto;html=1;exitX=1;exitY=0.5;exitDx=0;exitDy=0;entryX=0;entryY=0.5;entryDx=0;entryDy=0;strokeColor=#E07A5F;fontColor=#393C56;startArrow=none;startFill=0;fillColor=#F2CC8F;" parent="1" source="Dv45MwDtuRTJTmWjP7hb-157" target="Dv45MwDtuRTJTmWjP7hb-159" edge="1">
                    <mxGeometry relative="1" as="geometry"/>
                </mxCell>
                <mxCell id="6" style="edgeStyle=none;html=1;exitX=0.5;exitY=0;exitDx=0;exitDy=0;entryX=0.5;entryY=1;entryDx=0;entryDy=0;strokeColor=#E07A5F;fontColor=#393C56;rounded=0;startArrow=none;startFill=0;fillColor=#F2CC8F;" edge="1" parent="1" source="Dv45MwDtuRTJTmWjP7hb-157" target="Dv45MwDtuRTJTmWjP7hb-158">
                    <mxGeometry relative="1" as="geometry"/>
                </mxCell>
                <mxCell id="Dv45MwDtuRTJTmWjP7hb-157" value="Export Task List" style="ellipse;whiteSpace=wrap;html=1;strokeColor=#E07A5F;fontColor=#393C56;fillColor=#F2CC8F;dashed=1;" parent="1" vertex="1">
                    <mxGeometry x="300" y="1570" width="80" height="52.5" as="geometry"/>
                </mxCell>
                <mxCell id="Dv45MwDtuRTJTmWjP7hb-174" style="edgeStyle=none;rounded=0;orthogonalLoop=1;jettySize=auto;html=1;exitX=1;exitY=0.5;exitDx=0;exitDy=0;entryX=0;entryY=0.5;entryDx=0;entryDy=0;strokeColor=#E07A5F;fontColor=#393C56;startArrow=none;startFill=0;fillColor=#F2CC8F;" parent="1" source="Dv45MwDtuRTJTmWjP7hb-158" target="Dv45MwDtuRTJTmWjP7hb-160" edge="1">
                    <mxGeometry relative="1" as="geometry"/>
                </mxCell>
                <mxCell id="Dv45MwDtuRTJTmWjP7hb-158" value="Import Task List" style="ellipse;whiteSpace=wrap;html=1;strokeColor=#E07A5F;fontColor=#393C56;fillColor=#F2CC8F;dashed=1;" parent="1" vertex="1">
                    <mxGeometry x="330" y="1460" width="80" height="52.5" as="geometry"/>
                </mxCell>
                <mxCell id="Dv45MwDtuRTJTmWjP7hb-183" style="edgeStyle=none;rounded=0;orthogonalLoop=1;jettySize=auto;html=1;exitX=0.5;exitY=0;exitDx=0;exitDy=0;entryX=0.5;entryY=1;entryDx=0;entryDy=0;strokeColor=#E07A5F;fontColor=#393C56;startArrow=none;startFill=0;fillColor=#F2CC8F;" parent="1" source="Dv45MwDtuRTJTmWjP7hb-159" target="Dv45MwDtuRTJTmWjP7hb-160" edge="1">
                    <mxGeometry relative="1" as="geometry"/>
                </mxCell>
                <mxCell id="Dv45MwDtuRTJTmWjP7hb-204" style="edgeStyle=none;rounded=0;orthogonalLoop=1;jettySize=auto;html=1;exitX=1;exitY=0.5;exitDx=0;exitDy=0;entryX=0;entryY=0.5;entryDx=0;entryDy=0;strokeColor=#E07A5F;fontColor=#393C56;startArrow=none;startFill=0;fillColor=#F2CC8F;" parent="1" source="Dv45MwDtuRTJTmWjP7hb-159" target="Dv45MwDtuRTJTmWjP7hb-186" edge="1">
                    <mxGeometry relative="1" as="geometry"/>
                </mxCell>
                <mxCell id="Dv45MwDtuRTJTmWjP7hb-159" value="&lt;p style=&quot;line-height: 80%;&quot;&gt;Export Task List Encryption&lt;/p&gt;" style="ellipse;whiteSpace=wrap;html=1;strokeColor=#E07A5F;fontColor=#393C56;fillColor=#F2CC8F;dashed=1;" parent="1" vertex="1">
                    <mxGeometry x="440" y="1570" width="80" height="52.5" as="geometry"/>
                </mxCell>
                <mxCell id="Dv45MwDtuRTJTmWjP7hb-205" style="edgeStyle=none;rounded=0;orthogonalLoop=1;jettySize=auto;html=1;exitX=1;exitY=0.5;exitDx=0;exitDy=0;entryX=0;entryY=0.5;entryDx=0;entryDy=0;strokeColor=#E07A5F;fontColor=#393C56;startArrow=none;startFill=0;fillColor=#F2CC8F;" parent="1" source="Dv45MwDtuRTJTmWjP7hb-160" target="Dv45MwDtuRTJTmWjP7hb-187" edge="1">
                    <mxGeometry relative="1" as="geometry"/>
                </mxCell>
                <mxCell id="Dv45MwDtuRTJTmWjP7hb-160" value="&lt;p style=&quot;line-height: 80%;&quot;&gt;Import Task List Decryption&lt;/p&gt;" style="ellipse;whiteSpace=wrap;html=1;strokeColor=#E07A5F;fontColor=#393C56;fillColor=#F2CC8F;dashed=1;" parent="1" vertex="1">
                    <mxGeometry x="490" y="1460" width="80" height="52.5" as="geometry"/>
                </mxCell>
                <mxCell id="Dv45MwDtuRTJTmWjP7hb-203" style="edgeStyle=none;rounded=0;orthogonalLoop=1;jettySize=auto;html=1;exitX=1;exitY=0.5;exitDx=0;exitDy=0;entryX=0;entryY=0.5;entryDx=0;entryDy=0;strokeColor=#E07A5F;fontColor=#393C56;startArrow=none;startFill=0;fillColor=#F2CC8F;" parent="1" source="Dv45MwDtuRTJTmWjP7hb-161" target="Dv45MwDtuRTJTmWjP7hb-188" edge="1">
                    <mxGeometry relative="1" as="geometry"/>
                </mxCell>
                <mxCell id="Dv45MwDtuRTJTmWjP7hb-161" value="Task List Password Protection" style="ellipse;whiteSpace=wrap;html=1;strokeColor=#E07A5F;fontColor=#393C56;fillColor=#F2CC8F;shadow=0;dashed=1;" parent="1" vertex="1">
                    <mxGeometry x="505" y="1352.5" width="80" height="52.5" as="geometry"/>
                </mxCell>
                <mxCell id="Dv45MwDtuRTJTmWjP7hb-169" style="edgeStyle=none;rounded=0;orthogonalLoop=1;jettySize=auto;html=1;exitX=1;exitY=0.3333333333333333;exitDx=0;exitDy=0;exitPerimeter=0;entryX=0;entryY=0.5;entryDx=0;entryDy=0;strokeColor=#E07A5F;fontColor=#393C56;startArrow=none;startFill=0;fillColor=#F2CC8F;" parent="1" source="Dv45MwDtuRTJTmWjP7hb-162" target="Dv45MwDtuRTJTmWjP7hb-157" edge="1">
                    <mxGeometry relative="1" as="geometry"/>
                </mxCell>
                <mxCell id="Dv45MwDtuRTJTmWjP7hb-162" value="Coworker" style="shape=umlActor;verticalLabelPosition=bottom;verticalAlign=top;html=1;outlineConnect=0;labelBackgroundColor=none;fillColor=#F2CC8F;strokeColor=#E07A5F;fontColor=#393C56;" parent="1" vertex="1">
                    <mxGeometry x="150" y="1540" width="30" height="57.5" as="geometry"/>
                </mxCell>
                <mxCell id="Dv45MwDtuRTJTmWjP7hb-200" style="edgeStyle=none;rounded=0;orthogonalLoop=1;jettySize=auto;html=1;exitX=0;exitY=0.3333333333333333;exitDx=0;exitDy=0;exitPerimeter=0;entryX=1;entryY=1;entryDx=0;entryDy=0;strokeColor=#6c8ebf;fontColor=#393C56;startArrow=none;startFill=0;fillColor=#dae8fc;" parent="1" source="Dv45MwDtuRTJTmWjP7hb-175" target="Dv45MwDtuRTJTmWjP7hb-188" edge="1">
                    <mxGeometry relative="1" as="geometry"/>
                </mxCell>
                <mxCell id="Dv45MwDtuRTJTmWjP7hb-201" style="edgeStyle=none;rounded=0;orthogonalLoop=1;jettySize=auto;html=1;exitX=0;exitY=0.3333333333333333;exitDx=0;exitDy=0;exitPerimeter=0;entryX=1;entryY=0.5;entryDx=0;entryDy=0;strokeColor=#6c8ebf;fontColor=#393C56;startArrow=none;startFill=0;fillColor=#dae8fc;" parent="1" source="Dv45MwDtuRTJTmWjP7hb-175" target="Dv45MwDtuRTJTmWjP7hb-187" edge="1">
                    <mxGeometry relative="1" as="geometry"/>
                </mxCell>
                <mxCell id="Dv45MwDtuRTJTmWjP7hb-202" style="edgeStyle=none;rounded=0;orthogonalLoop=1;jettySize=auto;html=1;exitX=0;exitY=0.3333333333333333;exitDx=0;exitDy=0;exitPerimeter=0;entryX=1;entryY=0;entryDx=0;entryDy=0;strokeColor=#6c8ebf;fontColor=#393C56;startArrow=none;startFill=0;fillColor=#dae8fc;" parent="1" source="Dv45MwDtuRTJTmWjP7hb-175" target="Dv45MwDtuRTJTmWjP7hb-186" edge="1">
                    <mxGeometry relative="1" as="geometry"/>
                </mxCell>
                <mxCell id="Dv45MwDtuRTJTmWjP7hb-175" value="&lt;font color=&quot;#393c56&quot;&gt;System&lt;/font&gt;" style="shape=umlActor;verticalLabelPosition=bottom;verticalAlign=top;html=1;outlineConnect=0;labelBackgroundColor=none;fillColor=#dae8fc;strokeColor=#6c8ebf;" parent="1" vertex="1">
                    <mxGeometry x="800" y="1460" width="30" height="57.5" as="geometry"/>
                </mxCell>
                <mxCell id="Dv45MwDtuRTJTmWjP7hb-186" value="&lt;font color=&quot;#393c56&quot;&gt;Encrypt Data&lt;/font&gt;" style="ellipse;whiteSpace=wrap;html=1;strokeColor=#6c8ebf;fillColor=#dae8fc;" parent="1" vertex="1">
                    <mxGeometry x="590" y="1570" width="80" height="52.5" as="geometry"/>
                </mxCell>
                <mxCell id="Dv45MwDtuRTJTmWjP7hb-187" value="&lt;font color=&quot;#393c56&quot;&gt;Decrypt Data&lt;/font&gt;" style="ellipse;whiteSpace=wrap;html=1;strokeColor=#6c8ebf;fillColor=#dae8fc;" parent="1" vertex="1">
                    <mxGeometry x="640" y="1460" width="80" height="52.5" as="geometry"/>
                </mxCell>
                <mxCell id="Dv45MwDtuRTJTmWjP7hb-188" value="&lt;font color=&quot;#393c56&quot;&gt;Encrypt Password&lt;/font&gt;" style="ellipse;whiteSpace=wrap;html=1;strokeColor=#6c8ebf;fillColor=#dae8fc;" parent="1" vertex="1">
                    <mxGeometry x="670" y="1352.5" width="80" height="52.5" as="geometry"/>
                </mxCell>
                <mxCell id="Dv45MwDtuRTJTmWjP7hb-230" style="edgeStyle=none;rounded=0;orthogonalLoop=1;jettySize=auto;html=1;exitX=0;exitY=0.5;exitDx=0;exitDy=0;entryX=1;entryY=0.5;entryDx=0;entryDy=0;strokeColor=#6c8ebf;fontColor=#393C56;startArrow=classic;startFill=1;endArrow=none;endFill=0;fillColor=#dae8fc;" parent="1" source="Dv45MwDtuRTJTmWjP7hb-189" target="Dv45MwDtuRTJTmWjP7hb-225" edge="1">
                    <mxGeometry relative="1" as="geometry"/>
                </mxCell>
                <mxCell id="Dv45MwDtuRTJTmWjP7hb-232" style="edgeStyle=none;rounded=0;orthogonalLoop=1;jettySize=auto;html=1;exitX=0.5;exitY=1;exitDx=0;exitDy=0;entryX=0.5;entryY=0;entryDx=0;entryDy=0;strokeColor=#6c8ebf;fontColor=#393C56;startArrow=none;startFill=0;endArrow=classic;endFill=1;fillColor=#dae8fc;" parent="1" source="Dv45MwDtuRTJTmWjP7hb-189" target="Dv45MwDtuRTJTmWjP7hb-231" edge="1">
                    <mxGeometry relative="1" as="geometry"/>
                </mxCell>
                <mxCell id="Dv45MwDtuRTJTmWjP7hb-189" value="&lt;font color=&quot;#393c56&quot;&gt;Validate Data&lt;/font&gt;" style="ellipse;whiteSpace=wrap;html=1;strokeColor=#6c8ebf;fillColor=#dae8fc;" parent="1" vertex="1">
                    <mxGeometry x="690" y="288.75" width="80" height="52.5" as="geometry"/>
                </mxCell>
                <mxCell id="Dv45MwDtuRTJTmWjP7hb-192" style="edgeStyle=none;rounded=0;orthogonalLoop=1;jettySize=auto;html=1;exitX=0;exitY=0.3333333333333333;exitDx=0;exitDy=0;exitPerimeter=0;entryX=1;entryY=0.5;entryDx=0;entryDy=0;strokeColor=#6c8ebf;fontColor=#393C56;startArrow=none;startFill=0;fillColor=#dae8fc;" parent="1" target="Dv45MwDtuRTJTmWjP7hb-189" edge="1">
                    <mxGeometry relative="1" as="geometry">
                        <mxPoint x="819.9999999999998" y="317.6066666666668" as="sourcePoint"/>
                    </mxGeometry>
                </mxCell>
                <mxCell id="Dv45MwDtuRTJTmWjP7hb-190" value="&lt;font color=&quot;#393c56&quot;&gt;System&lt;/font&gt;" style="shape=umlActor;verticalLabelPosition=bottom;verticalAlign=top;html=1;outlineConnect=0;labelBackgroundColor=none;fillColor=#dae8fc;strokeColor=#6c8ebf;" parent="1" vertex="1">
                    <mxGeometry x="810" y="295.94000000000005" width="30" height="57.5" as="geometry"/>
                </mxCell>
                <mxCell id="Dv45MwDtuRTJTmWjP7hb-207" value="By Adam Bowles and Jacob Thieret" style="text;html=1;strokeColor=none;fillColor=none;align=center;verticalAlign=middle;whiteSpace=wrap;rounded=0;fontColor=#393C56;" parent="1" vertex="1">
                    <mxGeometry x="112.5" y="40" width="105" height="30" as="geometry"/>
                </mxCell>
                <mxCell id="Dv45MwDtuRTJTmWjP7hb-226" value="Task Fields" style="text;html=1;strokeColor=none;fillColor=none;align=center;verticalAlign=middle;whiteSpace=wrap;rounded=0;fontColor=#393C56;" parent="1" vertex="1">
                    <mxGeometry x="460" y="109.69" width="60" height="30" as="geometry"/>
                </mxCell>
                <mxCell id="Dv45MwDtuRTJTmWjP7hb-231" value="&lt;font color=&quot;#393c56&quot;&gt;Update Task&lt;/font&gt;" style="ellipse;whiteSpace=wrap;html=1;strokeColor=#6c8ebf;fillColor=#dae8fc;" parent="1" vertex="1">
                    <mxGeometry x="690" y="411.25" width="80" height="52.5" as="geometry"/>
                </mxCell>
                <mxCell id="Dv45MwDtuRTJTmWjP7hb-233" style="edgeStyle=none;rounded=0;orthogonalLoop=1;jettySize=auto;html=1;exitX=0.5;exitY=1;exitDx=0;exitDy=0;strokeColor=#E07A5F;fontColor=#393C56;startArrow=none;startFill=0;endArrow=classic;endFill=1;fillColor=#F2CC8F;" parent="1" source="Dv45MwDtuRTJTmWjP7hb-231" target="Dv45MwDtuRTJTmWjP7hb-231" edge="1">
                    <mxGeometry relative="1" as="geometry"/>
                </mxCell>
                <mxCell id="Dv45MwDtuRTJTmWjP7hb-247" style="rounded=0;orthogonalLoop=1;jettySize=auto;html=1;exitX=0;exitY=0.3333333333333333;exitDx=0;exitDy=0;exitPerimeter=0;entryX=1;entryY=0.5;entryDx=0;entryDy=0;strokeColor=#6c8ebf;fontColor=#393C56;startArrow=none;startFill=0;endArrow=classic;endFill=1;fillColor=#dae8fc;" parent="1" source="Dv45MwDtuRTJTmWjP7hb-234" target="Dv45MwDtuRTJTmWjP7hb-235" edge="1">
                    <mxGeometry relative="1" as="geometry"/>
                </mxCell>
                <mxCell id="Dv45MwDtuRTJTmWjP7hb-234" value="&lt;font color=&quot;#393c56&quot;&gt;System&lt;/font&gt;" style="shape=umlActor;verticalLabelPosition=bottom;verticalAlign=top;html=1;outlineConnect=0;labelBackgroundColor=none;fillColor=#dae8fc;strokeColor=#6c8ebf;" parent="1" vertex="1">
                    <mxGeometry x="790" y="797.5" width="30" height="57.5" as="geometry"/>
                </mxCell>
                <mxCell id="Dv45MwDtuRTJTmWjP7hb-240" style="edgeStyle=elbowEdgeStyle;rounded=0;orthogonalLoop=1;jettySize=auto;html=1;exitX=0.5;exitY=1;exitDx=0;exitDy=0;entryX=0.5;entryY=1;entryDx=0;entryDy=0;strokeColor=#6c8ebf;fontColor=#393C56;startArrow=none;startFill=0;endArrow=classic;endFill=1;fillColor=#dae8fc;elbow=vertical;" parent="1" source="Dv45MwDtuRTJTmWjP7hb-235" target="Dv45MwDtuRTJTmWjP7hb-108" edge="1">
                    <mxGeometry relative="1" as="geometry">
                        <Array as="points">
                            <mxPoint x="530" y="1010"/>
                        </Array>
                    </mxGeometry>
                </mxCell>
                <mxCell id="Dv45MwDtuRTJTmWjP7hb-241" style="edgeStyle=elbowEdgeStyle;rounded=0;orthogonalLoop=1;jettySize=auto;html=1;exitX=0.5;exitY=0;exitDx=0;exitDy=0;entryX=0.5;entryY=0;entryDx=0;entryDy=0;strokeColor=#6c8ebf;fontColor=#393C56;startArrow=none;startFill=0;endArrow=classic;endFill=1;fillColor=#dae8fc;" parent="1" source="Dv45MwDtuRTJTmWjP7hb-235" target="Dv45MwDtuRTJTmWjP7hb-109" edge="1">
                    <mxGeometry relative="1" as="geometry">
                        <Array as="points">
                            <mxPoint x="580" y="670"/>
                            <mxPoint x="520" y="660"/>
                            <mxPoint x="370" y="1000"/>
                            <mxPoint x="370" y="1000"/>
                            <mxPoint x="550" y="1000"/>
                            <mxPoint x="670" y="770"/>
                            <mxPoint x="670" y="730"/>
                            <mxPoint x="660" y="990"/>
                            <mxPoint x="570" y="990"/>
                            <mxPoint x="620" y="670"/>
                            <mxPoint x="710" y="790"/>
                        </Array>
                    </mxGeometry>
                </mxCell>
                <mxCell id="Dv45MwDtuRTJTmWjP7hb-235" value="&lt;font color=&quot;#393c56&quot;&gt;Update Views&lt;/font&gt;" style="ellipse;whiteSpace=wrap;html=1;strokeColor=#6c8ebf;fillColor=#dae8fc;" parent="1" vertex="1">
                    <mxGeometry x="670" y="803.75" width="80" height="52.5" as="geometry"/>
                </mxCell>
                <mxCell id="Dv45MwDtuRTJTmWjP7hb-242" value="Extends" style="text;html=1;strokeColor=none;fillColor=none;align=center;verticalAlign=middle;whiteSpace=wrap;rounded=0;fontColor=#393C56;rotation=11;" parent="1" vertex="1">
                    <mxGeometry x="400" y="391.25" width="60" height="30" as="geometry"/>
                </mxCell>
                <mxCell id="Dv45MwDtuRTJTmWjP7hb-243" value="Extends" style="text;html=1;strokeColor=none;fillColor=none;align=center;verticalAlign=middle;whiteSpace=wrap;rounded=0;fontColor=#393C56;rotation=-7;" parent="1" vertex="1">
                    <mxGeometry x="395" y="190" width="60" height="30" as="geometry"/>
                </mxCell>
                <mxCell id="Dv45MwDtuRTJTmWjP7hb-244" value="Extends" style="text;html=1;strokeColor=none;fillColor=none;align=center;verticalAlign=middle;whiteSpace=wrap;rounded=0;fontColor=#393C56;rotation=-90;" parent="1" vertex="1">
                    <mxGeometry x="310" y="288.75" width="60" height="30" as="geometry"/>
                </mxCell>
                <mxCell id="Dv45MwDtuRTJTmWjP7hb-246" value="Precedes" style="text;html=1;strokeColor=none;fillColor=none;align=center;verticalAlign=middle;whiteSpace=wrap;rounded=0;fontColor=#393C56;rotation=0;" parent="1" vertex="1">
                    <mxGeometry x="630" y="308.76" width="60" height="30" as="geometry"/>
                </mxCell>
                <mxCell id="Dv45MwDtuRTJTmWjP7hb-248" value="Extends" style="text;html=1;strokeColor=none;fillColor=none;align=center;verticalAlign=middle;whiteSpace=wrap;rounded=0;fontColor=#393C56;rotation=-90;" parent="1" vertex="1">
                    <mxGeometry x="690" y="357.19" width="60" height="30" as="geometry"/>
                </mxCell>
                <mxCell id="Dv45MwDtuRTJTmWjP7hb-252" value="Extends" style="text;html=1;strokeColor=none;fillColor=none;align=center;verticalAlign=middle;whiteSpace=wrap;rounded=0;fontColor=#393C56;rotation=-90;" parent="1" vertex="1">
                    <mxGeometry x="510" y="866.25" width="60" height="30" as="geometry"/>
                </mxCell>
                <mxCell id="Dv45MwDtuRTJTmWjP7hb-253" value="Includes" style="text;html=1;strokeColor=none;fillColor=none;align=center;verticalAlign=middle;whiteSpace=wrap;rounded=0;fontColor=#393C56;rotation=-90;" parent="1" vertex="1">
                    <mxGeometry x="280" y="815" width="60" height="30" as="geometry"/>
                </mxCell>
                <mxCell id="Dv45MwDtuRTJTmWjP7hb-254" value="Extends" style="text;html=1;strokeColor=none;fillColor=none;align=center;verticalAlign=middle;whiteSpace=wrap;rounded=0;fontColor=#393C56;rotation=0;" parent="1" vertex="1">
                    <mxGeometry x="590" y="650" width="60" height="30" as="geometry"/>
                </mxCell>
                <mxCell id="Dv45MwDtuRTJTmWjP7hb-255" value="Extends" style="text;html=1;strokeColor=none;fillColor=none;align=center;verticalAlign=middle;whiteSpace=wrap;rounded=0;fontColor=#393C56;rotation=0;" parent="1" vertex="1">
                    <mxGeometry x="580" y="990" width="60" height="30" as="geometry"/>
                </mxCell>
                <mxCell id="Dv45MwDtuRTJTmWjP7hb-256" value="Precedes" style="text;html=1;strokeColor=none;fillColor=none;align=center;verticalAlign=middle;whiteSpace=wrap;rounded=0;fontColor=#393C56;rotation=0;" parent="1" vertex="1">
                    <mxGeometry x="580" y="1352.5" width="60" height="30" as="geometry"/>
                </mxCell>
                <mxCell id="Dv45MwDtuRTJTmWjP7hb-259" value="Precedes" style="text;html=1;strokeColor=none;fillColor=none;align=center;verticalAlign=middle;whiteSpace=wrap;rounded=0;fontColor=#393C56;rotation=0;" parent="1" vertex="1">
                    <mxGeometry x="575" y="1460" width="60" height="30" as="geometry"/>
                </mxCell>
                <mxCell id="Dv45MwDtuRTJTmWjP7hb-260" value="Precedes" style="text;html=1;strokeColor=none;fillColor=none;align=center;verticalAlign=middle;whiteSpace=wrap;rounded=0;fontColor=#393C56;rotation=0;" parent="1" vertex="1">
                    <mxGeometry x="520" y="1570" width="60" height="30" as="geometry"/>
                </mxCell>
                <mxCell id="Dv45MwDtuRTJTmWjP7hb-261" value="Extends" style="text;html=1;strokeColor=none;fillColor=none;align=center;verticalAlign=middle;whiteSpace=wrap;rounded=0;fontColor=#393C56;rotation=-72;" parent="1" vertex="1">
                    <mxGeometry x="450" y="1530" width="60" height="30" as="geometry"/>
                </mxCell>
                <mxCell id="Dv45MwDtuRTJTmWjP7hb-263" value="Extends" style="text;html=1;strokeColor=none;fillColor=none;align=center;verticalAlign=middle;whiteSpace=wrap;rounded=0;fontColor=#393C56;rotation=0;" parent="1" vertex="1">
                    <mxGeometry x="410" y="1460" width="60" height="30" as="geometry"/>
                </mxCell>
                <mxCell id="Dv45MwDtuRTJTmWjP7hb-264" value="Extends" style="text;html=1;strokeColor=none;fillColor=none;align=center;verticalAlign=middle;whiteSpace=wrap;rounded=0;fontColor=#393C56;rotation=0;" parent="1" vertex="1">
                    <mxGeometry x="380" y="1570" width="60" height="30" as="geometry"/>
                </mxCell>
                <mxCell id="Dv45MwDtuRTJTmWjP7hb-265" value="Extends" style="text;html=1;strokeColor=none;fillColor=none;align=center;verticalAlign=middle;whiteSpace=wrap;rounded=0;fontColor=#393C56;rotation=12;" parent="1" vertex="1">
                    <mxGeometry x="365" y="1311.25" width="60" height="30" as="geometry"/>
                </mxCell>
                <mxCell id="Dv45MwDtuRTJTmWjP7hb-266" value="Extends" style="text;html=1;strokeColor=none;fillColor=none;align=center;verticalAlign=middle;whiteSpace=wrap;rounded=0;fontColor=#393C56;rotation=0;" parent="1" vertex="1">
                    <mxGeometry x="420" y="1375" width="60" height="30" as="geometry"/>
                </mxCell>
                <mxCell id="a6VTtxVTpwLwu77wF2ku-1" value="&lt;font color=&quot;#393c56&quot;&gt;Extends&lt;/font&gt;" style="text;html=1;strokeColor=none;fillColor=none;align=center;verticalAlign=middle;whiteSpace=wrap;rounded=0;" parent="1" vertex="1">
                    <mxGeometry x="370" y="705" width="60" height="30" as="geometry"/>
                </mxCell>
                <mxCell id="4" style="edgeStyle=none;rounded=0;orthogonalLoop=1;jettySize=auto;html=1;exitX=1;exitY=0.3333333333333333;exitDx=0;exitDy=0;exitPerimeter=0;entryX=0;entryY=0.5;entryDx=0;entryDy=0;strokeColor=#E07A5F;fontColor=#393C56;startArrow=none;startFill=0;fillColor=#F2CC8F;" edge="1" parent="1" source="Dv45MwDtuRTJTmWjP7hb-133" target="Dv45MwDtuRTJTmWjP7hb-155">
                    <mxGeometry relative="1" as="geometry">
                        <mxPoint x="180" y="1410" as="sourcePoint"/>
                        <mxPoint x="309.99999999999886" y="1336.25" as="targetPoint"/>
                    </mxGeometry>
                </mxCell>
                <mxCell id="5" style="edgeStyle=none;rounded=0;orthogonalLoop=1;jettySize=auto;html=1;exitX=0.5;exitY=1;exitDx=0;exitDy=0;entryX=0;entryY=0;entryDx=0;entryDy=0;strokeColor=#E07A5F;fontColor=#393C56;startArrow=none;startFill=0;fillColor=#F2CC8F;" edge="1" parent="1" source="Dv45MwDtuRTJTmWjP7hb-154" target="Dv45MwDtuRTJTmWjP7hb-155">
                    <mxGeometry relative="1" as="geometry">
                        <mxPoint x="180" y="1410" as="sourcePoint"/>
                        <mxPoint x="309.99999999999886" y="1336.25" as="targetPoint"/>
                    </mxGeometry>
                </mxCell>
                <mxCell id="9" value="&lt;span style=&quot;font-size: 11px;&quot;&gt;Precedes&lt;/span&gt;" style="text;html=1;strokeColor=none;fillColor=none;align=center;verticalAlign=middle;whiteSpace=wrap;rounded=0;fontColor=#393C56;rotation=24;" vertex="1" parent="1">
                    <mxGeometry x="540" y="760" width="60" height="30" as="geometry"/>
                </mxCell>
                <mxCell id="11" value="&lt;span style=&quot;font-size: 11px;&quot;&gt;Precedes&lt;/span&gt;" style="text;html=1;strokeColor=none;fillColor=none;align=center;verticalAlign=middle;whiteSpace=wrap;rounded=0;fontColor=#393C56;rotation=1;" vertex="1" parent="1">
                    <mxGeometry x="585" y="815" width="50" height="13.75" as="geometry"/>
                </mxCell>
                <mxCell id="12" value="&lt;span style=&quot;font-size: 11px;&quot;&gt;Precedes&lt;/span&gt;" style="text;html=1;strokeColor=none;fillColor=none;align=center;verticalAlign=middle;whiteSpace=wrap;rounded=0;fontColor=#393C56;rotation=-40;" vertex="1" parent="1">
                    <mxGeometry x="550" y="877.5" width="60" height="30" as="geometry"/>
                </mxCell>
                <mxCell id="40" value="" style="group;fillColor=#DEDEDE;container=0;strokeColor=#CCCCCC;" vertex="1" connectable="0" parent="1">
                    <mxGeometry x="140" y="110.63" width="80" height="89.37" as="geometry"/>
                </mxCell>
                <mxCell id="26" value="Key" style="text;html=1;strokeColor=none;fillColor=none;align=center;verticalAlign=middle;whiteSpace=wrap;rounded=0;shadow=0;glass=1;labelBackgroundColor=none;sketch=0;fontColor=#393C56;" vertex="1" parent="1">
                    <mxGeometry x="140" y="110.63" width="60" height="30" as="geometry"/>
                </mxCell>
                <mxCell id="28" value="" style="endArrow=none;dashed=1;html=1;strokeColor=#E07A5F;fontColor=#393C56;jumpStyle=gap;fontSize=12;fillColor=#F2CC8F;fontStyle=4;" edge="1" parent="1">
                    <mxGeometry width="50" height="50" relative="1" as="geometry">
                        <mxPoint x="190" y="150.23" as="sourcePoint"/>
                        <mxPoint x="215" y="150.41" as="targetPoint"/>
                    </mxGeometry>
                </mxCell>
                <mxCell id="31" value="&lt;p style=&quot;line-height: 34%;&quot;&gt;&lt;span style=&quot;font-size: 5px;&quot;&gt;No links to other Use Cases&lt;/span&gt;&lt;/p&gt;" style="text;html=1;strokeColor=none;fillColor=none;align=center;verticalAlign=middle;whiteSpace=wrap;rounded=0;shadow=0;glass=1;labelBackgroundColor=none;sketch=0;fontColor=#393C56;" vertex="1" parent="1">
                    <mxGeometry x="142.5" y="137.51" width="37.5" height="20" as="geometry"/>
                </mxCell>
                <mxCell id="32" value="&lt;p style=&quot;line-height: 34%;&quot;&gt;&lt;font style=&quot;font-size: 5px;&quot;&gt;Links to external Use Case&amp;nbsp; or System&lt;/font&gt;&lt;/p&gt;" style="text;html=1;strokeColor=none;fillColor=none;align=center;verticalAlign=middle;whiteSpace=wrap;rounded=0;shadow=0;glass=1;labelBackgroundColor=none;sketch=0;fontColor=#393C56;" vertex="1" parent="1">
                    <mxGeometry x="142.5" y="170" width="37.5" height="20" as="geometry"/>
                </mxCell>
                <mxCell id="37" value="" style="endArrow=none;html=1;strokeColor=#E07A5F;fontColor=#393C56;jumpStyle=gap;fontSize=12;fillColor=#F2CC8F;fontStyle=4;" edge="1" parent="1">
                    <mxGeometry width="50" height="50" relative="1" as="geometry">
                        <mxPoint x="190" y="179.85999999999996" as="sourcePoint"/>
                        <mxPoint x="215" y="180.04000000000002" as="targetPoint"/>
                    </mxGeometry>
                </mxCell>
            </root>
        </mxGraphModel>
    </diagram>
</mxfile>